# xmcd
# 
# Track frame offsets:
#     150
#     8871
#     21796
#     35131
#     49889
#     60986
#     72720
#     82735
#     93782
#     101914
#     110450
#     119186
#     131560
#     143466
#     158262
#     168373
#     181365
#     197699
#     209584
#     220806
#     231718
#     245804
#     259477
#     275285
#     287439
#     300423
# 
# Disc length: 4170
# 
# Revision: 1
# Processed by: cddbd v1.5.2PL0 Copyright (c) Steve Scherf et al.
# Submitted via: fre:ac v1.0.31
# 
DISCID=7d10481a
DTITLE=George Jones - With Tammy Wynette Songs Of Inspiration (We Love To Sing About Jesus '72  and  Inspiration '69)
DYEAR=2015
DGENRE=Country
TTITLE0=We Love To Sing About Jesus
TTITLE1=Old Fashioned Singing
TTITLE2=He Is My Everything
TTITLE3=Me And Jesus
TTITLE4=Noah And The Ark
TTITLE5=Let’s All Go Down To The River
TTITLE6=Let’s All Sing Ourselves To Glory
TTITLE7=Talkin’ About Jesus
TTITLE8=When Jesus Takes His Children Home
TTITLE9=Everything’s Gonna Be Alright
TTITLE10=Show Him That You Love Him
TTITLE11=Tammy Wynette - You’ll Never Walk Alone
TTITLE12=Tammy Wynette - Count Your Blessings Instead of Sheep
TTITLE13=Tammy Wynette - Just A Closer Walk With Thee
TTITLE14=Tammy Wynette - I Believe
TTITLE15=Tammy Wynette - Battle Hymn of The Republic
TTITLE16=Tammy Wynette - How Great Thou Art
TTITLE17=Tammy Wynette - He’s Got The Whole World In His Hands
TTITLE18=Tammy Wynette - It Is No Secret What God Can Do
TTITLE19=Tammy Wynette - Crying In The Chapel
TTITLE20=Tammy Wynette - He
TTITLE21=Tammy Wynette - May The Good Lord Keep And Bless You
TTITLE22=Tammy Wynette - The Wonders You Perform
TTITLE23=Tammy Wynette - Gentle Shepherd
TTITLE24=Tammy Wynette - I’d Like To See Jesus (On The Midnight Special)
TTITLE25=George Jones  - It’s A 10-33 (Let’s Get Jesus On The Line)
EXTD=
EXTT0=
EXTT1=
EXTT2=
EXTT3=
EXTT4=
EXTT5=
EXTT6=
EXTT7=
EXTT8=
EXTT9=
EXTT10=
EXTT11=
EXTT12=
EXTT13=
EXTT14=
EXTT15=
EXTT16=
EXTT17=
EXTT18=
EXTT19=
EXTT20=
EXTT21=
EXTT22=
EXTT23=
EXTT24=
EXTT25=
PLAYORDER=
